#!OML:ASF X:\für Bonn\!DataBase\2005_08_10_Bjorn_Final\c3d\bjorn.ASF
:FULLY-SPECIFIED
:DEGREES
676
root -0.0483701 1.67787 11.5828 -2068.96 -9.58959 192.145
lowerback -4.15293 -1.2334 -8.7726
upperback 2.66209 -1.05901 -4.71239
thorax 5.19677 -0.823816 -0.11404
lowerneck -16.6435 -5.67027 0.264881
upperneck 9.09357 -8.54645 4.60724
head 5.64594 -3.94078 0.574419
rclavicle 9.54166e-015 2.61402e-014
rhumerus -57.5881 41.1031 -104.341
rradius 110.203
rwrist -31.175
rhand 6.84818 8.93808
rfingers 7.12502
rthumb 32.1312 -18.2415
lclavicle 9.54166e-015 2.61402e-014
lhumerus -60.6463 -60.9439 106.633
lradius 111.811
lwrist 39.3345
lhand 10.1108 -12.8036
lfingers 7.12502
lthumb 35.2314 733.698
rfemur -368.602 -21.4704 365.166
rtibia 28.6517
rfoot 8.94647 -7.09077
rtoes 11.9419
lfemur -16.2187 -15.4811 -20.629
ltibia 27.4083
lfoot 18.3003 -2.66505
ltoes -18.6674
677
root -0.0528262 1.67577 11.577 -2068.92 -9.59058 192.179
lowerback -4.1834 -1.24404 -8.73612
upperback 2.66013 -1.07074 -4.72207
thorax 5.21179 -0.828258 -0.14605
lowerneck -16.6764 -5.66804 0.28002
upperneck 9.11666 -8.54305 4.57666
head 5.65637 -3.93924 0.561657
rclavicle -7.95139e-015 -8.37877e-014
rhumerus -57.6341 41.1483 -104.402
rradius 110.2
rwrist -31.194
rhand 7.00124 8.79973
rfingers 7.12502
rthumb 32.2769 -18.3503
lclavicle -7.95139e-015 -8.37877e-014
lhumerus -60.9039 -61.1618 106.781
lradius 111.87
lwrist 39.3331
lhand 10.0349 -12.8324
lfingers 7.12502
lthumb 35.1595 733.686
rfemur -368.683 -21.5381 365.155
rtibia 28.7438
rfoot 8.96288 -7.13998
rtoes 11.9403
lfemur -15.9206 -15.1131 -20.6119
ltibia 26.8113
lfoot 18.3599 -3.16161
ltoes -18.8009
678
root -0.0567377 1.67341 11.5726 -2068.88 -9.5748 192.195
lowerback -4.24495 -1.24919 -8.69364
upperback 2.67691 -1.07024 -4.71556
thorax 5.26387 -0.828019 -0.164807
lowerneck -16.7403 -5.67194 0.255624
upperneck 9.11993 -8.54314 4.57769
head 5.66878 -3.93845 0.56393
rclavicle -2.38542e-014 -4.27387e-015
rhumerus -57.6212 41.2089 -104.409
rradius 110.187
rwrist -31.2245
rhand 7.17192 8.68903
rfingers 7.12502
rthumb 32.4393 -18.4278
lclavicle -2.38542e-014 -4.27387e-015
lhumerus -61.0653 -61.4032 106.867
lradius 111.936
lwrist 39.4276
lhand 9.94992 -12.7919
lfingers 7.12502
lthumb 35.0788 733.746
rfemur -368.781 -21.4774 365.183
rtibia 28.836
rfoot 8.86488 -7.31088
rtoes 12.1536
lfemur -15.6445 -14.7135 -20.5796
ltibia 26.2339
lfoot 18.4305 -3.73957
ltoes -18.853
679
root -0.0610839 1.67106 11.5673 -2068.86 -9.54544 192.204
lowerback -4.2735 -1.25953 -8.63678
upperback 2.68296 -1.08207 -4.70246
thorax 5.28619 -0.831966 -0.184337
lowerneck -16.7345 -5.66516 0.237701
upperneck 9.08107 -8.52577 4.57294
head 5.6556 -3.93147 0.567888
rclavicle -3.33958e-014 1.50082e-014
rhumerus -57.67 41.3059 -104.46
rradius 110.188
rwrist -31.28
rhand 7.25876 8.59866
rfingers 7.12502
rthumb 32.522 -18.5012
lclavicle -3.33958e-014 1.50082e-014
lhumerus -61.3139 -61.5784 107.029
lradius 111.99
lwrist 39.442
lhand 9.89504 -12.7939
lfingers 7.12502
lthumb 35.0268 733.756
rfemur -368.855 -21.425 365.213
rtibia 28.9304
rfoot 8.77308 -7.45773
rtoes 12.1748
lfemur -15.348 -14.2849 -20.5411
ltibia 25.682
lfoot 18.5025 -4.35457
ltoes -18.7187
680
root -0.065911 1.66865 11.563 -2068.82 -9.53036 192.212
lowerback -4.32226 -1.2635 -8.57107
upperback 2.69729 -1.08351 -4.71615
thorax 5.32741 -0.831481 -0.236788
lowerneck -16.7992 -5.66091 0.247097
upperneck 9.08383 -8.5264 4.58749
head 5.66735 -3.92957 0.568984
rclavicle -4.6118e-014 1.86858e-014
rhumerus -57.6755 41.3588 -104.523
rradius 110.164
rwrist -31.331
rhand 7.39329 8.50786
rfingers 7.12502
rthumb 32.65 -18.5656
lclavicle -4.6118e-014 1.86858e-014
lhumerus -61.5366 -61.8164 107.13
lradius 112.064
lwrist 39.4647
lhand 9.80136 -12.8045
lfingers 7.12502
lthumb 34.9379 733.766
rfemur -368.948 -21.4217 365.23
rtibia 29.0198
rfoot 8.7084 -7.58452
rtoes 12.0073
lfemur -15.0755 -13.8332 -20.5156
ltibia 25.1554
lfoot 18.5765 -4.99871
ltoes -18.5623
681
root -0.0711463 1.66603 11.5571 -2068.79 -9.53141 192.222
lowerback -4.36217 -1.26367 -8.52806
upperback 2.70882 -1.08018 -4.72098
thorax 5.36109 -0.829301 -0.266706
lowerneck -16.8498 -5.66907 0.245417
upperneck 9.08948 -8.53425 4.56725
head 5.67653 -3.93363 0.560697
rclavicle 7.95139e-015 8.74653e-015
rhumerus -57.7186 41.4205 -104.574
rradius 110.172
rwrist -31.3996
rhand 7.47276 8.39609
rfingers 7.12502
rthumb 32.7256 -18.6616
lclavicle 7.95139e-015 8.74653e-015
lhumerus -61.7763 -62.0448 107.286
lradius 112.1
lwrist 39.4751
lhand 9.71203 -12.8749
lfingers 7.12502
lthumb 34.8532 733.715
rfemur -369.028 -21.4113 365.221
rtibia 29.1045
rfoot 8.63843 -7.72564
rtoes 12.0917
lfemur -14.812 -13.3796 -20.5154
ltibia 24.6639
lfoot 18.649 -5.6767
ltoes -18.4652
